# xmcd CD database file
#
# Track frame offsets:
#	183
#	17348
#	29878
#	42130
#	55095
#	71555
#	82880
#	98073
#	109135
#	124228
#	141058
#	154630
#	167358
#	184053
#	198635
#	210388
#	224613
#	243983
#	261535
#	275570
#
# Disc length: 3891 seconds
#
# Revision: 0
# Processed by: cddbd v1.4PL0 Copyright (c) Steve Scherf et al.
# Submitted via: CDex 1.50beta9
#
DISCID=1f0f3114
DTITLE=Various Artist - Thoughts Of Yesterday
DYEAR=1900
DGENRE=Country
TTITLE0=I Need You
TTITLE1=Do What You Do Do Well
TTITLE2=Crazy
TTITLE3=More Than I Can Say
TTITLE4=Maggie
TTITLE5=Before The Next Teardrop Falls
TTITLE6=Pal Of My Cradle Days
TTITLE7=Seven Lonely Days
TTITLE8=Sentimental Old You
TTITLE9=More Than Yesterday
TTITLE10=Roses Are Red
TTITLE11=China Doll
TTITLE12=Say You'll Stay Until Tomorrow
TTITLE13=After All These Years
TTITLE14=Ramblin' Rose
TTITLE15=Little Things Mean A Lot
TTITLE16=It's Our Anniversary
TTITLE17=Yellow Roses
TTITLE18=He Stopped Loving Her Today
TTITLE19=Old Flames
EXTD=
EXTT0=
EXTT1=
EXTT2=
EXTT3=
EXTT4=
EXTT5=
EXTT6=
EXTT7=
EXTT8=
EXTT9=
EXTT10=
EXTT11=
EXTT12=
EXTT13=
EXTT14=
EXTT15=
EXTT16=
EXTT17=
EXTT18=
EXTT19=
PLAYORDER=
